<?xml version="1.0" encoding="utf-8"?>
<!DOCTYPE svg PUBLIC "-//W3C//DTD SVG 1.1//EN" "http://www.w3.org/Graphics/SVG/1.1/DTD/svg11.dtd">
<svg version="1.1" id="Layer_1" xmlns="http://www.w3.org/2000/svg" xmlns:xlink="http://www.w3.org/1999/xlink" x="0px" y="0px"
	 width="100%" height="100%" viewBox="0 0 400.117 94.808" enable-background="new 0 0 400.117 94.808"
	 xml:space="preserve">
<g>
	<g>
		<g>
			<path fill="#36BB53" d="M45.547,0C31.311,0,14.138,3.399,0,10.882C0,27.042-0.195,67.3,45.547,94.808
				C91.29,67.3,91.096,27.042,91.096,10.882C76.957,3.399,59.785,0,45.547,0z M45.547,85.492
				C11.407,62.881,8.209,32.458,7.91,15.789C19.068,10.796,32.788,7.88,45.547,7.88c12.759,0,26.48,2.916,37.64,7.909
				C82.887,32.46,79.688,62.88,45.547,85.492z"/>
			<path fill="#36BB53" d="M43.793,62.954L72.77,23.21c-2.123-1.733-3.985-0.511-5.01,0.436l-0.038,0.003l-24.16,25.578
				l-9.104-11.149c-4.342-5.106-10.246-1.211-11.625-0.183L43.793,62.954z"/>
		</g>
	</g>
	<g>
		<path d="M130.687,28.541h6.269l16.938,38.771h-7.149l-3.905-9.294h-18.203l-3.959,9.294h-6.929L130.687,28.541z M140.366,52.023
			l-6.654-15.398l-6.599,15.398H140.366z"/>
		<path d="M159.591,28.816h14.354c12.098,0,20.457,8.304,20.457,19.247c0,10.834-8.359,19.248-20.457,19.248h-14.354V28.816z
			 M173.944,61.152c8.084,0,13.363-5.444,13.363-13.089c0-7.533-5.279-13.088-13.363-13.088h-7.589v26.177H173.944z"/>
		<path d="M200.049,48.063c0-10.778,8.249-19.907,19.853-19.907c6.709,0,10.834,1.87,14.793,5.225l-4.289,5.114
			c-2.97-2.529-5.884-4.124-10.778-4.124c-7.095,0-12.483,6.214-12.483,13.692c0,7.919,5.224,13.749,13.088,13.749
			c3.63,0,6.929-1.155,9.294-2.915v-7.204h-9.844V45.81h16.388v16.167c-3.794,3.245-9.238,5.995-16.058,5.995
			C207.968,67.972,200.049,59.393,200.049,48.063z"/>
		<path d="M244.033,50.979V28.816h6.764v21.887c0,7.149,3.685,10.999,9.733,10.999c5.995,0,9.679-3.63,9.679-10.724V28.816h6.765
			v21.832c0,11.493-6.489,17.268-16.553,17.268C250.412,67.916,244.033,62.142,244.033,50.979z"/>
		<path d="M297.063,28.541h6.269l16.938,38.771h-7.149l-3.904-9.294h-18.203l-3.959,9.294h-6.93L297.063,28.541z M306.741,52.023
			l-6.654-15.398l-6.6,15.398H306.741z"/>
		<path d="M325.966,28.816h17.158c9.019,0,14.298,4.84,14.298,12.264c0,6.324-3.795,10.118-9.184,11.658l10.394,14.573h-7.975
			l-9.568-13.418h-8.358v13.418h-6.765V28.816z M342.629,47.898c4.839,0,7.919-2.529,7.919-6.544c0-4.124-2.97-6.379-7.974-6.379
			h-9.844v12.923H342.629z"/>
		<path d="M365.307,28.816h14.354c12.098,0,20.457,8.304,20.457,19.247c0,10.834-8.359,19.248-20.457,19.248h-14.354V28.816z
			 M379.66,61.152c8.084,0,13.363-5.444,13.363-13.089c0-7.533-5.279-13.088-13.363-13.088h-7.589v26.177H379.66z"/>
	</g>
</g>
</svg>
