<?xml version="1.0" encoding="utf-8"?>
<!DOCTYPE svg PUBLIC "-//W3C//DTD SVG 1.1//EN" "http://www.w3.org/Graphics/SVG/1.1/DTD/svg11.dtd">
<svg version="1.1" id="Layer_1" xmlns="http://www.w3.org/2000/svg" xmlns:xlink="http://www.w3.org/1999/xlink" x="0px" y="0px"
	 width="100%" height="100%" viewBox="0 0 20 20" enable-background="new 0 0 20 20" xml:space="preserve">
<g>
	<g>
		<path fill="#666666" d="M13.857,5.5L10,9.357L6.143,5.5L5.5,6.143L9.357,10L5.5,13.857L6.143,14.5L10,10.643l3.857,3.857
			l0.643-0.643L10.643,10L14.5,6.143L13.857,5.5z M10,0C4.477,0,0,4.477,0,10c0,5.523,4.477,10,10,10c5.523,0,10-4.477,10-10
			C20,4.477,15.523,0,10,0z M10,19.091c-5.021,0-9.091-4.07-9.091-9.091S4.979,0.909,10,0.909c5.021,0,9.091,4.07,9.091,9.091
			S15.021,19.091,10,19.091z"/>
	</g>
</g>
</svg>
